<?xml version="1.0" encoding="utf-8"?>
<!-- Generator: Adobe Illustrator 16.0.0, SVG Export Plug-In . SVG Version: 6.00 Build 0)  -->
<!DOCTYPE svg PUBLIC "-//W3C//DTD SVG 1.1//EN" "http://www.w3.org/Graphics/SVG/1.1/DTD/svg11.dtd">
<svg version="1.1" id="Layer_9" xmlns="http://www.w3.org/2000/svg" xmlns:xlink="http://www.w3.org/1999/xlink" x="0px" y="0px"
	 width="100px" height="100px" viewBox="0 0 100 100" enable-background="new 0 0 100 100" xml:space="preserve">
<path d="M82.32,34.559c-5.008,0-9.179,3.574-10.108,8.311l-10.544-0.248C60.992,31.33,51.624,22.38,40.163,22.38
	c-4.76,0-9.158,1.547-12.724,4.161l-1.788-2.085c1.457-1.777,2.333-4.05,2.333-6.527c0-5.691-4.615-10.305-10.307-10.306
	c-5.691,0-10.305,4.614-10.305,10.306s4.613,10.306,10.305,10.306c1.946,0,3.759-0.549,5.312-1.486l1.795,2.093
	c-3.814,3.888-6.169,9.211-6.169,15.087c0,9.878,6.649,18.198,15.715,20.742l-2.313,7.57c-0.979-0.307-2.018-0.475-3.097-0.475
	c-5.692,0-10.306,4.614-10.306,10.306s4.613,10.305,10.306,10.306c5.691,0,10.306-4.614,10.306-10.306
	c0-3.333-1.59-6.287-4.043-8.171l2.615-8.557c0.776,0.085,1.564,0.132,2.364,0.132c11.155,0,20.332-8.479,21.437-19.342
	l10.539,0.248c0.736,4.97,5.008,8.787,10.182,8.787c5.692,0,10.307-4.613,10.307-10.305C92.627,39.172,88.013,34.559,82.32,34.559z
	 M28.921,90.08c-4.416,0-8.009-3.593-8.009-8.009c0-0.465,0.376-0.841,0.84-0.841s0.84,0.376,0.84,0.841
	c0,3.489,2.839,6.328,6.329,6.328c0.464,0,0.84,0.377,0.841,0.84C29.762,89.704,29.385,90.08,28.921,90.08z M16.838,10.761
	c0-0.464,0.376-0.841,0.84-0.841c4.416,0.001,8.009,3.594,8.009,8.009c0,0.465-0.376,0.841-0.84,0.841s-0.84-0.376-0.84-0.841
	c0-3.489-2.839-6.328-6.329-6.328C17.214,11.601,16.838,11.225,16.838,10.761z M26.93,43.928c0,0.971-0.786,1.757-1.756,1.757
	c-0.971,0-1.757-0.786-1.757-1.757c0-9.233,7.513-16.746,16.746-16.746c0.97,0,1.757,0.786,1.757,1.757s-0.787,1.757-1.757,1.757
	C32.866,30.695,26.93,36.631,26.93,43.928z M89.489,45.704c-0.464,0-0.84-0.376-0.84-0.84c0-3.489-2.839-6.329-6.329-6.329
	c-0.464,0-0.84-0.376-0.84-0.84s0.376-0.841,0.84-0.841c4.416,0.001,8.01,3.594,8.01,8.01C90.33,45.328,89.953,45.704,89.489,45.704
	z"/>
</svg>
