<?xml version="1.0" encoding="utf-8"?>
<!-- Generator: Adobe Illustrator 16.0.0, SVG Export Plug-In . SVG Version: 6.00 Build 0)  -->
<!DOCTYPE svg PUBLIC "-//W3C//DTD SVG 1.1//EN" "http://www.w3.org/Graphics/SVG/1.1/DTD/svg11.dtd">
<svg version="1.1" id="Layer_1" xmlns="http://www.w3.org/2000/svg" xmlns:xlink="http://www.w3.org/1999/xlink" x="0px" y="0px"
	 width="64px" height="64px" viewBox="0 0 64 64" enable-background="new 0 0 64 64" xml:space="preserve">
<g>
	<path d="M51.879,20.033c-0.378-0.23-3.22-1.961-3.22-1.961s2.054-5.874,1.875-6.688c-0.177-0.813-1.048-1.129-1.048-1.129
		l-3.461,6.388l-3.556-1.546l-0.021-2.333l-1.086-0.966c0,0-0.318,2.663-0.77,3.308c-0.449,0.644-2.228,1.851-2.228,1.851
		l0.937,0.95l2.426-1.307l2.991,2.071l-3.716,6.216c0,0,0.749,0.923,1.486,0.521c0.736-0.402,4.342-5.037,4.342-5.037
		s3.501,1.958,3.873,2.043c0.372,0.087,1.291,0.574,1.757-0.54C52.924,20.761,52.257,20.263,51.879,20.033z"/>
	<path d="M46.332,26.432c-0.526-0.631-1.115-1.204-1.732-1.745l-0.9,0.93c0.566,0.492,1.108,1.013,1.592,1.587
		c-0.875,0.573-1.893,1.078-3.024,1.496c-0.833-2.472-2.048-4.528-3.511-5.924c0.553,0.181,1.088,0.401,1.609,0.646l0.689-1.107
		c-2.05-0.985-4.346-1.539-6.768-1.539c-0.009,0-0.016,0-0.022,0c-0.005,0-0.01,0-0.015,0c-0.018,0-0.035,0.002-0.054,0.002
		c-4.799,0.028-9.093,2.224-11.952,5.654c-0.264,0.317-0.514,0.645-0.752,0.982c-1.813,2.557-2.882,5.674-2.882,9.04
		s1.069,6.483,2.882,9.04c0.238,0.337,0.488,0.666,0.752,0.982c2.86,3.43,7.153,5.625,11.952,5.653c0.019,0,0.036,0.002,0.054,0.002
		c0.005,0,0.01,0,0.015,0c0.007,0,0.014,0,0.022,0c4.836,0,9.167-2.202,12.045-5.655c0.263-0.317,0.513-0.646,0.752-0.983
		c1.813-2.557,2.881-5.675,2.881-9.04s-1.068-6.483-2.881-9.04C46.845,27.077,46.597,26.748,46.332,26.432z M29.705,22.815
		c-1.441,1.39-2.638,3.422-3.463,5.861c-1.106-0.413-2.102-0.91-2.959-1.473C24.966,25.206,27.178,23.667,29.705,22.815z
		 M22.528,28.187c0.974,0.651,2.101,1.22,3.347,1.689c-0.537,1.964-0.846,4.145-0.856,6.446h-5.119
		C19.929,33.295,20.901,30.495,22.528,28.187z M19.947,37.608h5.096c0.083,1.926,0.375,3.753,0.832,5.424
		c-1.246,0.469-2.373,1.039-3.347,1.689C21.086,42.676,20.158,40.243,19.947,37.608z M23.287,45.702
		c0.857-0.561,1.85-1.057,2.953-1.469c0.826,2.439,2.023,4.47,3.465,5.86C27.178,49.241,24.97,47.7,23.287,45.702z M33.645,50.798
		c-2.639-0.362-4.917-3.069-6.21-6.967c1.862-0.559,3.971-0.896,6.21-0.952V50.798z M33.645,41.594
		c-2.361,0.057-4.588,0.422-6.569,1.03c-0.406-1.542-0.666-3.232-0.745-5.016h7.314V41.594z M33.645,36.321h-7.34
		c0.011-2.16,0.292-4.201,0.776-6.036c1.979,0.606,4.204,0.972,6.563,1.028V36.321z M33.645,30.028
		c-2.238-0.055-4.346-0.392-6.207-0.95c1.293-3.896,3.568-6.607,6.207-6.969V30.028z M34.931,22.119
		c2.611,0.403,4.859,3.108,6.138,6.979c-1.844,0.546-3.926,0.877-6.138,0.931V22.119z M34.931,31.314
		c2.332-0.056,4.531-0.413,6.495-1.007c0.479,1.829,0.76,3.863,0.77,6.015h-7.265V31.314z M34.931,37.608h7.239
		c-0.078,1.775-0.337,3.458-0.739,4.995c-1.964-0.595-4.167-0.953-6.5-1.009V37.608z M34.931,50.789v-7.909
		c2.212,0.054,4.296,0.385,6.141,0.932C39.793,47.683,37.542,50.385,34.931,50.789z M38.756,50.131
		c1.463-1.396,2.681-3.45,3.513-5.922c1.13,0.417,2.146,0.921,3.021,1.493C43.581,47.73,41.331,49.288,38.756,50.131z
		 M46.048,44.722c-0.992-0.664-2.143-1.242-3.416-1.716c0.452-1.664,0.742-3.482,0.824-5.398h5.173
		C48.418,40.243,47.49,42.676,46.048,44.722z M43.483,36.321c-0.013-2.291-0.318-4.462-0.852-6.42
		c1.273-0.474,2.423-1.052,3.415-1.714c1.626,2.308,2.6,5.108,2.628,8.134H43.483z"/>
	<path d="M13.944,36.077c0-11.465,9.327-20.794,20.794-20.794c1.187,0,2.344,0.117,3.475,0.31l1.317-0.811l0.433-1.44
		c-1.486-0.3-3.651-0.622-5.225-0.622c-12.88,0-23.357,10.478-23.357,23.357c0,1.355,0.069,2.625,0.222,3.83
		c0.641,5.061,7.079,13.838,12.19,13.839C18.259,49.788,13.944,43.528,13.944,36.077z"/>
</g>
</svg>
