<?xml version="1.0" encoding="utf-8"?>
<!-- Generator: Adobe Illustrator 16.0.0, SVG Export Plug-In . SVG Version: 6.00 Build 0)  -->
<!DOCTYPE svg PUBLIC "-//W3C//DTD SVG 1.1//EN" "http://www.w3.org/Graphics/SVG/1.1/DTD/svg11.dtd">
<svg version="1.1" id="Layer_10" xmlns="http://www.w3.org/2000/svg" xmlns:xlink="http://www.w3.org/1999/xlink" x="0px" y="0px"
	 width="100px" height="100px" viewBox="0 0 100 100" enable-background="new 0 0 100 100" xml:space="preserve">
<g>
	<path d="M81.715,45.347H67.743H45.061H19.287L7.099,33.158c-0.262-0.261-0.672-0.301-0.979-0.092
		c-0.307,0.208-0.422,0.604-0.274,0.944l6.203,14.31c-0.198,0.315-0.368,0.651-0.508,1.003l-0.004,0.889
		c-1.009,0.048-1.816,0.874-1.816,1.896c0,1.026,0.812,1.856,1.827,1.899c0.134,0.336,0.291,0.66,0.478,0.967l7.004,3.009H49.88
		L37.49,63.947c-0.429,0.979-0.1,2.128,0.783,2.731c0.38,0.261,0.82,0.386,1.254,0.389l32.885-9.085h9.303
		c3.49,0,12.502-2.828,12.502-6.319C94.218,48.174,85.205,45.347,81.715,45.347z"/>
	<path d="M42.27,44.264h15.174l-15.621-4.314c-0.435,0-0.873,0.128-1.254,0.388c-0.883,0.604-1.212,1.753-0.783,2.731L42.27,44.264z
		"/>
</g>
</svg>
