<?xml version="1.0" encoding="utf-8"?>
<!-- Generator: Adobe Illustrator 15.0.0, SVG Export Plug-In . SVG Version: 6.00 Build 0)  -->
<!DOCTYPE svg PUBLIC "-//W3C//DTD SVG 1.1//EN" "http://www.w3.org/Graphics/SVG/1.1/DTD/svg11.dtd">
<svg version="1.1" id="Layer_1" xmlns="http://www.w3.org/2000/svg" xmlns:xlink="http://www.w3.org/1999/xlink" x="0px" y="0px"
	 width="26px" height="26px" viewBox="0 0 26 26" enable-background="new 0 0 26 26" xml:space="preserve">
<g>
	<path d="M20.05,11.86h-0.571V9.494L19.47,9.413c0-0.003-0.043-0.224,0.068-0.361c0.112-0.138,0.361-0.167,0.55-0.167
		c0.205,0,0.37-0.166,0.37-0.37s-0.165-0.37-0.37-0.37c-0.515,0-0.896,0.151-1.133,0.451c-0.282,0.356-0.242,0.784-0.217,0.933
		v2.332H14.99l-1.666-3.94c-0.307-0.752-0.767-1.296-1.481-1.296h-3.61c-0.714,0-1.296,0.581-1.296,1.296v4.778l0.218-0.218
		c0.288-0.288,0.68-0.439,1.086-0.432c0.271-0.29,0.656-0.465,1.079-0.465h0.741c0.424,0,0.808,0.175,1.08,0.465
		c0.407-0.008,0.797,0.144,1.086,0.433l0.523,0.523c0.294,0.293,0.442,0.692,0.431,1.09c0.289,0.273,0.467,0.66,0.467,1.076v0.679
		h2.322c-0.352,0.375-0.569,0.877-0.569,1.431c0,1.154,0.939,2.095,2.095,2.095c1.154,0,2.095-0.94,2.095-2.095
		c0-0.558-0.221-1.063-0.575-1.438c0.413-0.034,1.035-0.348,1.035-0.732l0.74-2.509C20.79,12.191,20.458,11.86,20.05,11.86z
		 M8.062,10.96V8.34c0-0.474,0.386-0.859,0.859-0.859h2.393c0.473,0,0.779,0.36,0.982,0.859l1.104,2.63L8.062,10.96z M17.495,18.264
		c-0.542,0-0.984-0.441-0.984-0.983c0-0.543,0.442-0.984,0.984-0.984s0.983,0.441,0.983,0.984
		C18.479,17.822,18.037,18.264,17.495,18.264z"/>
	<path d="M12.324,13.59l-0.466-0.466c-0.257-0.258-0.605-0.393-0.968-0.386c-0.242-0.258-0.584-0.414-0.962-0.414H9.269
		c-0.377,0-0.72,0.156-0.961,0.414c-0.361-0.007-0.711,0.128-0.968,0.386L6.873,13.59c-0.267,0.268-0.4,0.621-0.387,0.976
		c-0.255,0.243-0.412,0.586-0.412,0.954v0.659c0,0.368,0.157,0.711,0.412,0.955c-0.012,0.354,0.12,0.707,0.387,0.975l0.466,0.466
		c0.257,0.258,0.607,0.397,0.968,0.386c0.242,0.259,0.584,0.415,0.961,0.415h0.659c0.377,0,0.72-0.156,0.962-0.415
		c0.363,0.012,0.711-0.128,0.968-0.386l0.466-0.466c0.262-0.261,0.393-0.617,0.384-0.971c0.257-0.244,0.416-0.588,0.416-0.959V15.52
		c0-0.371-0.159-0.714-0.416-0.958C12.717,14.207,12.585,13.852,12.324,13.59z M9.598,18.056c-1.216,0-2.206-0.99-2.206-2.206
		s0.99-2.206,2.206-2.206c1.216,0,2.206,0.99,2.206,2.206S10.814,18.056,9.598,18.056z"/>
	<circle cx="9.598" cy="15.85" r="1.216"/>
</g>
</svg>
