<?xml version="1.0" encoding="utf-8"?>
<!-- Generator: Adobe Illustrator 16.0.4, SVG Export Plug-In . SVG Version: 6.00 Build 0)  -->
<!DOCTYPE svg PUBLIC "-//W3C//DTD SVG 1.1//EN" "http://www.w3.org/Graphics/SVG/1.1/DTD/svg11.dtd">
<svg version="1.1" id="Capa_1" xmlns="http://www.w3.org/2000/svg" xmlns:xlink="http://www.w3.org/1999/xlink" x="0px" y="0px"
	 width="64px" height="64px" viewBox="0 0 64 64" enable-background="new 0 0 64 64" xml:space="preserve">
<g>
	<path d="M47.169,5.29c-0.206-1.085-1.269-1.965-2.373-1.965H17.889c-1.104,0-2.167,0.88-2.373,1.965l-0.627,3.304h32.907
		L47.169,5.29z M31.135,7.592H16.249l0.389-2.047c0.127-0.672,0.785-1.217,1.47-1.217h13.235L31.135,7.592z"/>
	<path d="M58.717,27.659H56.76V15.326c0-2.209-1.791-4-4-4H36.484H26.286H10.51c-2.209,0-4,1.791-4,4v12.333H4.554
		c-0.552,0-1,0.448-1,1v7.666c0,0.552,0.448,1,1,1H6.51v11.751c0,0.553,0.448,1,1,1h2.25c0.552,0,1,0.447,1,1v9.25
		c0,0.553,0.448,1,1,1h5.25c0.552,0,1-0.447,1-1v-9.25c0-0.553,0.448-1,1-1h25.5c0.553,0,1,0.447,1,1v9.25c0,0.553,0.447,1,1,1h5.25
		c0.553,0,1-0.447,1-1v-9.25c0-0.553,0.447-1,1-1h2c0.553,0,1-0.447,1-1V37.325h1.957c0.553,0,1-0.448,1-1v-7.666
		C59.717,28.107,59.27,27.659,58.717,27.659z M27.168,16.383c0-0.167,0.134-0.301,0.3-0.301h2.514c0.166,0,0.301-0.134,0.301-0.3
		v-2.514c0-0.166,0.134-0.301,0.3-0.301h2.104c0.166,0,0.299,0.135,0.299,0.301v2.514c0,0.166,0.136,0.3,0.302,0.3h2.515
		c0.166,0,0.301,0.134,0.301,0.301v2.105c0,0.165-0.135,0.3-0.301,0.3h-2.515c-0.166,0-0.302,0.134-0.302,0.301v2.514
		c0,0.166-0.133,0.301-0.299,0.301h-2.104c-0.166,0-0.3-0.135-0.3-0.301v-2.514c0-0.167-0.135-0.301-0.301-0.301h-2.514
		c-0.166,0-0.3-0.135-0.3-0.3V16.383z M10.635,24.918c0-0.553,0.448-1,1-1h40c0.553,0,1,0.447,1,1v12.5c0,0.553-0.447,1-1,1h-40
		c-0.552,0-1-0.447-1-1V24.918z M19.386,47.326H11.72c-1.104,0-2-0.896-2-2v-2.503c0-1.104,0.896-2,2-2h7.666V47.326z
		 M39.721,47.326H23.386c-0.552,0-1-0.374-1-0.835c0-0.462,0.448-0.835,1-0.835h16.334c0.551,0,1,0.373,1,0.835
		C40.721,46.952,40.271,47.326,39.721,47.326z M40.721,43.074c0,0.553-0.449,1-1,1H23.386c-0.552,0-1-0.447-1-1v-1.251
		c0-0.552,0.448-1,1-1h16.334c0.551,0,1,0.448,1,1V43.074z M53.553,45.326c0,1.104-0.896,2-2,2h-7.666v-6.503h7.666
		c1.104,0,2,0.896,2,2V45.326z"/>
</g>
</svg>
