<?xml version="1.0" encoding="iso-8859-1"?>
<!-- Generator: Adobe Illustrator 17.1.0, SVG Export Plug-In . SVG Version: 6.00 Build 0)  -->
<!DOCTYPE svg PUBLIC "-//W3C//DTD SVG 1.1//EN" "http://www.w3.org/Graphics/SVG/1.1/DTD/svg11.dtd">
<svg version="1.1" id="Capa_1" xmlns="http://www.w3.org/2000/svg" xmlns:xlink="http://www.w3.org/1999/xlink" x="0px" y="0px"
	 viewBox="0 0 64 64" style="enable-background:new 0 0 64 64;" xml:space="preserve">
<g>
	<path d="M11.323,58.798l7.896-7.824c0.453-0.383,0.776-0.912,0.909-1.489l1.021-4.43l4.404,2.388v10.164
		c0,1.523,1.239,2.763,2.763,2.763c1.523,0,2.763-1.239,2.763-2.763V45.798c0-1.014-0.554-1.944-1.446-2.429l-3.986-2.162
		l-2.387-12.915l3.686-4.804c0.275-0.359,0.428-0.808,0.428-1.261v-5.049c0-1.143-0.93-2.072-2.072-2.072
		c-1.143,0-2.072,0.929-2.072,2.072v4.346l-2.133,2.78l-6.997,1.2l-2.089-2.438l0.595-7.333c0.091-1.139-0.759-2.141-1.9-2.233
		c-1.14-0.077-2.14,0.779-2.231,1.898L7.81,23.592c-0.045,0.555,0.131,1.093,0.493,1.516l5.184,6.048l2.45,11.915l-0.986,4.274
		l-7.194,7.23c-1.163,0.983-1.311,2.729-0.328,3.895C8.376,59.588,10.202,59.745,11.323,58.798z"/>
	<path d="M16.229,14.478c-2.346,0.825-3.548,3.418-2.723,5.762c0.84,2.321,3.421,3.546,5.76,2.702
		c2.349-0.837,3.555-3.42,2.726-5.745C21.146,14.857,18.575,13.63,16.229,14.478z"/>
	<path d="M47.502,8.577c-3.537,0-9.521,0.73-9.521,3.463v8.104c0,4.399,3.558,7.98,7.947,8.022v4.563h1.889V28.17h1.18
		c4.425,0,8.025-3.601,8.025-8.026V12.04C57.021,9.306,51.037,8.577,47.502,8.577z M47.502,10.465c4.4,0,7.209,0.995,7.61,1.574
		c-0.4,0.579-3.209,1.573-7.61,1.573c-4.401,0-7.211-0.995-7.611-1.573C40.291,11.46,43.1,10.465,47.502,10.465z M51.085,20.734
		h-2.876v-2.162h3.35C51.364,19.242,51.203,19.964,51.085,20.734z M46.794,17.156h-3.546c-0.328-0.841-0.687-1.566-1.03-2.169
		c1.503,0.321,3.169,0.469,4.576,0.505V17.156z M43.727,18.573h3.066v2.162h-2.592C44.084,19.964,43.922,19.242,43.727,18.573z
		 M52.039,17.156h-3.83v-1.664c1.511-0.039,3.318-0.209,4.904-0.582C52.757,15.528,52.382,16.28,52.039,17.156z M48.996,26.282
		h-2.99c-3.384,0-6.137-2.753-6.137-6.138v-5.901c0.086,0.04,0.17,0.081,0.261,0.119c0.878,1.196,2.939,4.511,2.851,9.192
		c-0.008,0.391,0.304,0.714,0.694,0.721c0.004,0,0.009,0,0.014,0c0.385,0,0.701-0.309,0.708-0.695
		c0.009-0.493-0.009-0.966-0.04-1.43h2.437v1.417c0,0.391,0.316,0.708,0.708,0.708c0.391,0,0.708-0.317,0.708-0.708v-1.417h2.72
		c-0.031,0.464-0.049,0.937-0.04,1.43c0.008,0.386,0.324,0.695,0.708,0.695c0.004,0,0.009,0,0.013,0
		c0.391-0.007,0.702-0.331,0.695-0.721c-0.087-4.619,1.937-7.927,2.828-9.157v5.747C55.134,23.529,52.38,26.282,48.996,26.282z"/>
	<circle cx="28.75" cy="8.577" r="3.5"/>
</g>
</svg>
