<?xml version="1.0" encoding="utf-8"?>
<!-- Generator: Adobe Illustrator 16.0.0, SVG Export Plug-In . SVG Version: 6.00 Build 0)  -->
<!DOCTYPE svg PUBLIC "-//W3C//DTD SVG 1.1//EN" "http://www.w3.org/Graphics/SVG/1.1/DTD/svg11.dtd">
<svg version="1.1" id="Layer_6" xmlns="http://www.w3.org/2000/svg" xmlns:xlink="http://www.w3.org/1999/xlink" x="0px" y="0px"
	 width="100px" height="100px" viewBox="0 0 100 100" enable-background="new 0 0 100 100" xml:space="preserve">
<path d="M50,11.5c-21.229,0-38.5,17.271-38.5,38.5S28.771,88.5,50,88.5S88.5,71.229,88.5,50S71.229,11.5,50,11.5z M81.447,64.16
	c-0.234,0.028-0.468,0.093-0.689,0.209c-0.089,0.047-2.83,1.445-7.448,2.968c1.263-5.353,1.816-10.501,1.904-15.337h9.224
	C84.19,56.313,83.142,60.412,81.447,64.16z M64.044,81.5c-3.712,1.662-7.767,2.689-12.029,2.937v-9.13
	c5.749-0.197,10.951-1.022,15.372-2.06c-0.874,2.517-1.906,5.058-3.16,7.611C64.125,81.066,64.071,81.283,64.044,81.5z
	 M35.646,80.81c-0.046-0.089-1.434-2.809-2.95-7.394c5.343,1.263,10.49,1.831,15.319,1.922v9.101
	c-4.316-0.246-8.418-1.293-12.169-2.988C35.814,81.232,35.754,81.016,35.646,80.81z M18.553,64.162
	C16.858,60.414,15.81,56.313,15.563,52h9.146c0.193,5.805,1.029,11.046,2.078,15.497c-2.51-0.872-5.043-1.902-7.591-3.152
	C18.987,64.242,18.771,64.188,18.553,64.162z M18.487,35.984c0.257-0.021,0.514-0.094,0.757-0.221
	c0.088-0.047,2.783-1.421,7.328-2.929c-1.243,5.289-1.793,10.38-1.887,15.165h-9.123C15.807,43.743,16.831,39.693,18.487,35.984z
	 M35.863,18.542c3.746-1.69,7.843-2.735,12.152-2.98v9.265c-5.818,0.197-11.07,1.039-15.525,2.093
	c0.878-2.537,1.917-5.098,3.181-7.672C35.783,19.02,35.842,18.78,35.863,18.542z M64.252,19.296
	c0.046,0.089,1.433,2.808,2.949,7.391c-5.297-1.243-10.395-1.792-15.186-1.884v-9.239c4.257,0.247,8.306,1.272,12.015,2.93
	C64.047,18.766,64.117,19.039,64.252,19.296z M52.015,28.9c5.194,0.09,10.762,0.754,16.522,2.292
	c1.222,4.618,2.288,10.352,2.537,16.808H52.015V28.9z M48.015,28.938V48H28.784c0.093-5.19,0.759-10.753,2.298-16.508
	C35.726,30.26,41.505,29.184,48.015,28.938z M28.821,52h19.194v19.231c-5.234-0.088-10.847-0.757-16.655-2.318
	C30.132,64.27,29.062,58.499,28.821,52z M52.015,71.192V52h19.1c-0.086,5.238-0.753,10.856-2.313,16.67
	C64.184,69.888,58.459,70.947,52.015,71.192z M75.188,48c-0.2-5.768-1.035-10.976-2.078-15.402c2.545,0.88,5.114,1.922,7.698,3.19
	c0.227,0.111,0.464,0.163,0.701,0.185c1.659,3.713,2.685,7.766,2.93,12.027H75.188z M78.283,30.279
	c-2.154-0.893-4.291-1.658-6.404-2.309c-0.748-2.496-1.511-4.599-2.177-6.268C73.042,24.035,75.949,26.941,78.283,30.279z
	 M30.144,21.813c-0.882,2.133-1.64,4.248-2.285,6.341c-2.44,0.733-4.504,1.48-6.15,2.136C24.008,27,26.865,24.129,30.144,21.813z
	 M21.866,69.931c2.07,0.853,4.124,1.589,6.156,2.218c0.708,2.364,1.432,4.38,2.073,6.004C26.911,75.895,24.127,73.113,21.866,69.931
	z M69.772,78.246c0.865-2.096,1.611-4.174,2.247-6.231c2.421-0.723,4.488-1.464,6.138-2.116
	C75.861,73.138,73.023,75.965,69.772,78.246z"/>
</svg>
