<?xml version="1.0" encoding="iso-8859-1"?>
<!-- Generator: Adobe Illustrator 16.0.0, SVG Export Plug-In . SVG Version: 6.00 Build 0)  -->
<!DOCTYPE svg PUBLIC "-//W3C//DTD SVG 1.1//EN" "http://www.w3.org/Graphics/SVG/1.1/DTD/svg11.dtd">
<svg version="1.1" id="Layer_1" xmlns="http://www.w3.org/2000/svg" xmlns:xlink="http://www.w3.org/1999/xlink" x="0px" y="0px"
	 width="27.599px" height="31.624px" viewBox="0 0 27.599 31.624" style="enable-background:new 0 0 27.599 31.624;"
	 xml:space="preserve">
<g>
	<path d="M21.65,14.012V9.626c0,0-3.957-2.094-7.887-2.094c-3.931,0-7.766,2.154-7.766,2.154v3.53
		c-1.127,2.128-1.07,4.286-1.07,4.286l0.667,10.891l-0.335,3.23h8.28l-2.433-4.613l0.722-0.18v-2.745
		c-2.781-0.872-4.832-3.35-5.062-6.357l1.906,0.273v1.165h5.002v-0.824h0.88v0.824h5.001v-1.135l1.59-0.247
		c-0.091,2.518-1.392,5.887-5.255,6.388v2.562h0.012l0.92,0.438l-2.473,4.451h4.762c0.017-0.101,0.034-0.199,0.051-0.301
		l0.042,0.301h3.141l-0.493-4.458c0.16-1.185,0.702-3.041,0.782-4.896c0.071-1.636,0.151-5.205-1.036-8.279
		C21.632,14.003,21.65,14.012,21.65,14.012z M13.118,18.61H9.23v-1.979h3.888V18.61z M19.001,18.61h-3.889v-1.979h3.889V18.61z
		 M19.557,17.187v-1.112h-5.001v1.159h-0.88v-1.159H8.674v1.085l-1.929-0.278c0.015-0.14,0.035-0.278,0.049-0.423
		c2.011-0.135,4.281-1.721,4.459-3.925c2.541,2.106,6.146,2.209,9.15,2.479c0.373,0.174,0.649,0.93,0.728,1.932L19.557,17.187z"/>
	<path d="M26.042,8.656l1.557-0.837l-1.557-0.862V6.549c0,0,0.438-2.222-2.052-1.06c-0.127,0.068-0.194,0.139-0.223,0.206L13.496,0
		L0,7.724l5.097,2.315V9.287c0,0,4.276-2.401,8.661-2.401c4.382,0,8.793,2.334,8.793,2.334v1.313l2.813-1.511
		c0,1.751,0,5.494,0,6.119h-0.936v2.174l1.245-0.86l1.382,0.86v-2.174h-1.013V8.656z M25.363,6.172c0,0.052,0,0.196,0,0.409
		l-0.821-0.455C24.843,5.926,25.363,5.652,25.363,6.172z M25.086,8.571c-0.364,0-0.658-0.295-0.658-0.657
		c0-0.364,0.294-0.659,0.658-0.659c0.363,0,0.657,0.295,0.657,0.659C25.743,8.276,25.449,8.571,25.086,8.571z"/>
</g>
<g>
</g>
<g>
</g>
<g>
</g>
<g>
</g>
<g>
</g>
<g>
</g>
<g>
</g>
<g>
</g>
<g>
</g>
<g>
</g>
<g>
</g>
<g>
</g>
<g>
</g>
<g>
</g>
<g>
</g>
</svg>
