<?xml version="1.0" encoding="utf-8"?>
<!-- Generator: Adobe Illustrator 15.0.0, SVG Export Plug-In . SVG Version: 6.00 Build 0)  -->
<!DOCTYPE svg PUBLIC "-//W3C//DTD SVG 1.1//EN" "http://www.w3.org/Graphics/SVG/1.1/DTD/svg11.dtd">
<svg version="1.1" id="Layer_1" xmlns="http://www.w3.org/2000/svg" xmlns:xlink="http://www.w3.org/1999/xlink" x="0px" y="0px"
	 width="26px" height="26px" viewBox="0 0 26 26" enable-background="new 0 0 26 26" xml:space="preserve">
<g>
	<path d="M14.777,5.587l-0.887,3.305l0.217-4.178c-1.226-0.532-2.299,0-2.299,0l0.217,4.178L11.14,5.587
		c-2.465,0.686-4.026,2.692-4.026,5.375h11.691C18.805,8.279,17.242,6.273,14.777,5.587z"/>
	<path d="M19.948,11.441H6.109v1.106h1.518l-0.006,0.37c0,0.001,0.001,0.13,0,0.207c-0.091,0.283-0.066,0.463,0.184,1.786
		C7.777,14.938,7.75,14.968,7.726,15c-0.359,0.477-0.181,1.377-0.037,1.891c0.075,0.454,0.248,0.754,0.411,0.941
		c0.414,2.497,2.602,4.658,4.748,4.658c2.281,0,4.552-2.116,5.024-4.65c0.164-0.188,0.339-0.48,0.41-0.925
		c0.172-0.621,0.302-1.438-0.015-1.894c0.104-0.403,0.209-0.94,0.238-1.532c0.042-0.097,0.046-0.208,0.008-0.312
		c0-0.057,0-0.109-0.002-0.149l0.004-0.065c0.002-0.032,0-0.064-0.006-0.096l-0.058-0.321h1.495L19.948,11.441L19.948,11.441z"/>
</g>
</svg>
