<?xml version="1.0" encoding="iso-8859-1"?>
<!-- Generator: Adobe Illustrator 16.0.4, SVG Export Plug-In . SVG Version: 6.00 Build 0)  -->
<!DOCTYPE svg PUBLIC "-//W3C//DTD SVG 1.1//EN" "http://www.w3.org/Graphics/SVG/1.1/DTD/svg11.dtd">
<svg version="1.1" id="Capa_1" xmlns="http://www.w3.org/2000/svg" xmlns:xlink="http://www.w3.org/1999/xlink" x="0px" y="0px"
	 width="15px" height="14.38px" viewBox="0 0 15 14.38" style="enable-background:new 0 0 15 14.38;" xml:space="preserve">
<path style="fill:#010002;" d="M5.661,2.946C5.685,2.827,5.685,2.7,5.721,2.587h4.92c0.081,0.25,0.135,0.514,0.135,0.791
	c0,1.434-1.161,2.594-2.592,2.594c-1.152,0-2.123-0.756-2.461-1.796C6.004,3.799,5.968,3.29,5.661,2.946z M3.961,14.38h1.26
	l-0.042-1.4L3.961,14.38z M12.475,8.67c0.188,0.382,0.492,3.331,0.718,5.71h-1.776l-0.369-3.814l-0.119,3.814h-5.49l-0.118-3.814
	c0,0-0.026-0.505-0.118-0.961L0.755,9.552C0.464,9.548,0.198,9.378,0.076,9.114C-0.055,8.851-0.013,8.536,0.171,8.31l0.267-0.33
	c0.021-0.054,0.055-0.104,0.091-0.15L4.355,3.11c0.261-0.33,0.745-0.379,1.07-0.113C5.753,3.261,5.804,3.74,5.538,4.068v0.005
	L2.953,7.284l2.784-0.388c0.006-0.001,0.014,0.003,0.02,0.001C6.319,6.69,7.027,6.579,7.935,6.579h0.247h0.252
	C10.852,6.579,11.838,7.37,12.475,8.67z M10.946,7.296c-0.291-0.156-0.633-0.282-1.045-0.365l-4.145,7.414h1.248L10.946,7.296z
	 M10.203,0H6.159L5.721,2.187h4.92L10.203,0z M13.208,5.954l-0.086-0.085l1.235-1.239l0.091,0.084L15,4.155l-0.297-0.296
	l-0.559,0.558l0.038,0.039l-1.233,1.238l-0.262-0.259L12.28,5.028l-0.199,0.197l0.414,0.41L11.32,6.81l-0.195-0.072l-0.112,0.109
	c0.337,0.166,0.631,0.382,0.89,0.643L13.208,5.954z"/>
<g>
</g>
<g>
</g>
<g>
</g>
<g>
</g>
<g>
</g>
<g>
</g>
<g>
</g>
<g>
</g>
<g>
</g>
<g>
</g>
<g>
</g>
<g>
</g>
<g>
</g>
<g>
</g>
<g>
</g>
</svg>
