<?xml version="1.0" encoding="iso-8859-1"?>
<!-- Generator: Adobe Illustrator 17.1.0, SVG Export Plug-In . SVG Version: 6.00 Build 0)  -->
<!DOCTYPE svg PUBLIC "-//W3C//DTD SVG 1.1//EN" "http://www.w3.org/Graphics/SVG/1.1/DTD/svg11.dtd">
<svg version="1.1" id="Capa_1" xmlns="http://www.w3.org/2000/svg" xmlns:xlink="http://www.w3.org/1999/xlink" x="0px" y="0px"
	 viewBox="0 0 200 200" style="enable-background:new 0 0 200 200;" xml:space="preserve">
<g>
	<rect x="9" y="9" width="182" height="116"/>
	<path d="M25.821,159.319c0.192,0.229,0.461,0.356,0.757,0.356h23.043c0.296,0,0.565-0.127,0.757-0.357
		c0.617-0.738,1.323-1.376,2.085-1.928c0.081-0.62,0.137-1.248,0.137-1.89c0-8.008-6.492-14.5-14.5-14.5s-14.5,6.492-14.5,14.5
		c0,0.642,0.056,1.27,0.137,1.891C24.498,157.943,25.204,158.581,25.821,159.319z"/>
	<path d="M87.721,159.319c0.192,0.229,0.461,0.356,0.757,0.356h23.043c0.296,0,0.565-0.127,0.758-0.357
		c0.617-0.738,1.322-1.376,2.083-1.927c0.081-0.62,0.137-1.248,0.137-1.89c0-8.008-6.492-14.5-14.5-14.5s-14.5,6.492-14.5,14.5
		c0,0.642,0.056,1.27,0.137,1.89C86.399,157.942,87.104,158.581,87.721,159.319z"/>
	<path d="M150.379,159.675h23.043c0.296,0,0.565-0.127,0.758-0.357c0.881-1.053,1.932-1.915,3.091-2.582
		c0.035-0.408,0.062-0.818,0.062-1.235c0-8.008-6.492-14.5-14.5-14.5c-8.008,0-14.5,6.492-14.5,14.5c0,0.945,0.097,1.866,0.27,2.761
		c0.357,0.331,0.7,0.678,1.017,1.057C149.813,159.548,150.082,159.675,150.379,159.675z"/>
	<path d="M16.996,159.197c-1.697,0-3.405,0.573-4.808,1.748c-3.177,2.657-3.599,7.388-0.941,10.564
		c3.809,4.555,9.397,7.166,15.331,7.166h23.043c5.934,0,11.521-2.612,15.331-7.167c2.658-3.177,2.236-7.907-0.941-10.564
		c-1.404-1.173-3.111-1.746-4.808-1.746c-2.144,0-4.273,0.914-5.757,2.688c-0.85,1.016-2.053,1.641-3.354,1.764
		c-0.156,0.015-0.313,0.026-0.471,0.026H26.578c-0.158,0-0.315-0.011-0.47-0.026c-1.301-0.123-2.505-0.748-3.354-1.763
		C21.269,160.112,19.14,159.197,16.996,159.197z"/>
	<path d="M84.096,161.291c-0.064-0.062-0.133-0.116-0.198-0.175c-0.133-0.12-0.267-0.238-0.407-0.347
		c-0.082-0.063-0.167-0.121-0.252-0.181c-0.13-0.093-0.261-0.184-0.396-0.267c-0.092-0.057-0.187-0.109-0.281-0.162
		c-0.133-0.075-0.267-0.146-0.404-0.212c-0.099-0.047-0.198-0.092-0.298-0.135c-0.138-0.059-0.277-0.114-0.418-0.164
		c-0.102-0.037-0.204-0.073-0.307-0.105c-0.145-0.045-0.291-0.083-0.437-0.12c-0.102-0.025-0.203-0.051-0.305-0.072
		c-0.156-0.031-0.313-0.054-0.471-0.076c-0.095-0.013-0.19-0.03-0.286-0.039c-0.183-0.018-0.367-0.025-0.55-0.03
		c-0.063-0.001-0.126-0.01-0.189-0.01c-0.006,0-0.012,0.001-0.018,0.001c-0.381,0.001-0.762,0.038-1.14,0.097
		c-0.06,0.01-0.12,0.017-0.18,0.027c-0.364,0.066-0.725,0.161-1.079,0.282c-0.065,0.022-0.13,0.046-0.194,0.07
		c-0.354,0.132-0.702,0.288-1.039,0.477c-0.048,0.027-0.095,0.058-0.142,0.086c-0.351,0.207-0.693,0.437-1.016,0.707
		c-3.177,2.657-3.599,7.388-0.941,10.564c3.809,4.555,9.397,7.166,15.331,7.166h23.043c5.933,0,11.521-2.612,15.33-7.166
		c2.658-3.177,2.237-7.907-0.939-10.564c-0.323-0.27-0.665-0.5-1.016-0.707c-0.048-0.028-0.094-0.06-0.142-0.086
		c-0.337-0.188-0.685-0.345-1.039-0.477c-0.064-0.024-0.128-0.047-0.193-0.069c-0.355-0.121-0.716-0.217-1.081-0.283
		c-0.059-0.011-0.119-0.018-0.178-0.027c-0.379-0.059-0.76-0.096-1.142-0.097c-0.006,0-0.012-0.001-0.018-0.001
		c-0.06,0-0.12,0.008-0.18,0.01c-0.187,0.005-0.374,0.011-0.56,0.03c-0.094,0.009-0.187,0.026-0.28,0.039
		c-0.159,0.022-0.318,0.045-0.476,0.077c-0.101,0.021-0.201,0.047-0.301,0.071c-0.148,0.036-0.296,0.075-0.442,0.121
		c-0.102,0.032-0.203,0.067-0.304,0.104c-0.142,0.051-0.282,0.106-0.421,0.165c-0.099,0.043-0.198,0.087-0.296,0.134
		c-0.137,0.066-0.272,0.138-0.406,0.213c-0.094,0.052-0.188,0.104-0.279,0.161c-0.135,0.083-0.266,0.175-0.396,0.267
		c-0.085,0.06-0.17,0.118-0.253,0.182c-0.139,0.108-0.273,0.226-0.405,0.345c-0.066,0.059-0.135,0.114-0.2,0.176
		c-0.194,0.187-0.381,0.384-0.557,0.594c-0.851,1.017-2.054,1.642-3.355,1.765c-0.156,0.015-0.313,0.026-0.471,0.026H88.478
		c-0.158,0-0.315-0.011-0.47-0.026c-1.301-0.123-2.505-0.748-3.354-1.763C84.477,161.675,84.29,161.478,84.096,161.291z"/>
	<path d="M146.553,161.885c-1.484-1.773-3.613-2.688-5.757-2.688c-1.697,0-3.404,0.574-4.808,1.749
		c-3.177,2.657-3.598,7.388-0.939,10.564c3.809,4.554,9.396,7.165,15.33,7.165h23.043c5.933,0,11.521-2.612,15.33-7.166
		c2.658-3.177,2.237-7.907-0.939-10.564c-1.404-1.175-3.111-1.748-4.809-1.748c-2.144,0-4.272,0.914-5.755,2.688
		c-0.61,0.729-1.403,1.256-2.281,1.543c-0.493,0.161-1.013,0.248-1.545,0.248H150.86h-0.481
		C148.899,163.675,147.505,163.022,146.553,161.885z"/>
</g>
</svg>
