<?xml version="1.0" encoding="iso-8859-1"?>
<!-- Generator: Adobe Illustrator 16.0.0, SVG Export Plug-In . SVG Version: 6.00 Build 0)  -->
<!DOCTYPE svg PUBLIC "-//W3C//DTD SVG 1.1//EN" "http://www.w3.org/Graphics/SVG/1.1/DTD/svg11.dtd">
<svg version="1.1" id="Layer_1" xmlns="http://www.w3.org/2000/svg" xmlns:xlink="http://www.w3.org/1999/xlink" x="0px" y="0px"
	 width="31.451px" height="21.459px" viewBox="0 0 31.451 21.459" style="enable-background:new 0 0 31.451 21.459;"
	 xml:space="preserve">
<g>
	<polygon points="10.466,19.724 11.706,19.724 11.706,21.459 14.804,21.459 14.804,19.724 24.47,19.724 24.47,21.459 27.568,21.459 
		27.568,19.724 28.559,19.724 28.559,18.649 10.466,18.649 	"/>
	<path d="M10.466,2.083v15.821h18.093V2.083c0,0-1.817-1.817-9.004-2.064C12.366-0.229,10.466,2.083,10.466,2.083z M13.358,2.083
		c0.41,0,0.743,0.335,0.743,0.745S13.768,3.57,13.358,3.57c-0.411,0-0.744-0.332-0.744-0.742S12.947,2.083,13.358,2.083z
		 M11.87,4.933h6.94v6.735h-6.94V4.933z M13.254,16.378c-0.856,0-1.548-0.694-1.548-1.549c0-0.857,0.692-1.55,1.548-1.55
		c0.856,0,1.549,0.692,1.549,1.55C14.804,15.684,14.111,16.378,13.254,16.378z M23.024,17.08h-6.94v-0.826h6.94V17.08z
		 M23.024,15.551h-6.94v-0.826h6.94V15.551z M23.024,13.981h-6.94v-0.827h6.94V13.981z M27.568,14.829
		c0,0.854-0.693,1.549-1.55,1.549c-0.854,0-1.548-0.694-1.548-1.549c0-0.857,0.694-1.55,1.548-1.55
		C26.875,13.279,27.568,13.972,27.568,14.829z M25.584,1.918c0.412,0,0.744,0.334,0.744,0.744s-0.333,0.743-0.744,0.743
		c-0.41,0-0.743-0.333-0.743-0.743S25.174,1.918,25.584,1.918z M19.967,4.933h6.939v6.735h-6.939V4.933z"/>
	<rect x="7.74" y="6.009" width="2.23" height="2.974"/>
	<rect x="29.221" y="5.842" width="2.23" height="2.976"/>
	<path d="M4.597,9.865c0.868,0,1.573-0.705,1.573-1.574c0-0.347-0.116-0.664-0.308-0.924l0.181-0.753L5.198,6.768L4.853,6.229
		L3.932,6.843L3.28,6.574L3.125,7.342L2.472,7.727L3.05,8.541C3.17,9.291,3.814,9.865,4.597,9.865z"/>
	<polygon points="5.583,18.438 5.174,15.657 3.106,15.635 4.046,18.438 3.442,21.049 3.369,21.049 3.369,21.459 5.671,21.459 
		5.671,21.049 5.2,21.049 	"/>
	<path d="M5.174,15.479v-1.34l-1.632-0.838H3.528v-2.59l1.222,0.02l-0.005,1.52l0.429,0.323v-2.497H2.892l-0.339,0.119v-0.119
		c0,0-0.077-0.003-0.197,0.003V9.823c0-0.086-0.071-0.155-0.156-0.155c-0.087,0-0.157,0.069-0.157,0.155v0.282
		c-0.384,0.05-1.358,0.176-1.607,0.5C0,11.177,0,15.266,0,15.266l2.553-0.303v-0.282l0.339,0.194v0.604H5.174z M2.553,13.973v-3.109
		l0.339-0.089v3.393L2.553,13.973z"/>
	<polygon points="4.565,10.914 3.736,10.907 3.736,13.138 6.181,14.426 6.808,13.613 4.585,12.371 	"/>
</g>
<g>
</g>
<g>
</g>
<g>
</g>
<g>
</g>
<g>
</g>
<g>
</g>
<g>
</g>
<g>
</g>
<g>
</g>
<g>
</g>
<g>
</g>
<g>
</g>
<g>
</g>
<g>
</g>
<g>
</g>
</svg>
