<?xml version="1.0" encoding="iso-8859-1"?>
<!-- Generator: Adobe Illustrator 17.1.0, SVG Export Plug-In . SVG Version: 6.00 Build 0)  -->
<!DOCTYPE svg PUBLIC "-//W3C//DTD SVG 1.1//EN" "http://www.w3.org/Graphics/SVG/1.1/DTD/svg11.dtd">
<svg version="1.1" id="Capa_1" xmlns="http://www.w3.org/2000/svg" xmlns:xlink="http://www.w3.org/1999/xlink" x="0px" y="0px"
	 viewBox="0 0 200 200" style="enable-background:new 0 0 200 200;" xml:space="preserve">
<g>
	<path d="M100,194c51.915,0,94-42.085,94-94S151.915,6,100,6S6,48.085,6,100S48.085,194,100,194z M107.5,50.214v32.92
		c0,4.142-3.358,7.5-7.5,7.5s-7.5-3.358-7.5-7.5v-32.92V35.096v-4.894c0-4.142,3.358-7.5,7.5-7.5s7.5,3.358,7.5,7.5v4.894V50.214z
		 M84.5,36.502v15.542c-20.913,6.598-36.12,26.174-36.12,49.239c0,28.463,23.156,51.62,51.62,51.62s51.62-23.156,51.62-51.62
		c0-23.065-15.207-42.641-36.12-49.239V36.502c29.281,7.007,51.12,33.383,51.12,64.78c0,36.734-29.885,66.62-66.62,66.62
		s-66.62-29.885-66.62-66.62C33.38,69.885,55.219,43.509,84.5,36.502z"/>
</g>
</svg>
