<svg width="64" xmlns="http://www.w3.org/2000/svg" height="64" viewBox="0 0 64 64" xmlns:xlink="http://www.w3.org/1999/xlink" enable-background="new 0 0 64 64">
<path d="m55.73,17.999h-8.5c-.553,0-1-.448-1-1v-8.333c0-.553-.447-1-1-1h-26c-.553,0-1,.447-1,1v8.333c0,.552-.447,1-1,1h-8.5c-2.762,0-5,2.238-5,5v28.334c0,2.762 2.238,5 5,5h2.405v.261c0,.574 .895,1.041 2,1.041h8.083c1.104,0 2-.467 2-1.041 0-.093 0-.176 0-.261h18.834v.261c0,.574 .896,1.041 2,1.041h8.083c1.104,0 2-.467 2-1.041 0-.093 0-.176 0-.261h1.595c2.762,0 5-2.238 5-5v-28.334c0-2.762-2.238-5-5-5zm-29-4.499c0-.553 .447-1 1-1h9c.553,0 1,.447 1,1v3.499c0,.552-.447,1-1,1h-2.095v-.03c0-.553-.447-1-1-1h-2.833c-.553,0-1,.447-1,1v.03h-2.072c-.553,0-1-.448-1-1v-3.499zm13.122,25.981c0,.267-.218,.485-.485,.485h-4.062c-.268,0-.485,.216-.485,.484v4.062c0,.268-.217,.485-.485,.485h-3.398c-.269,0-.486-.218-.486-.485v-4.062c0-.269-.218-.484-.484-.484h-4.062c-.269,0-.485-.219-.485-.485v-3.4c0-.268 .217-.485 .485-.485h4.062c.267,0 .484-.217 .484-.483v-4.062c0-.269 .218-.486 .486-.486h3.398c.268,0 .485,.218 .485,.486v4.062c0,.267 .218,.483 .485,.483h4.062c.268,0 .485,.218 .485,.485v3.4z"/>
</svg>
