<?xml version="1.0" encoding="utf-8"?>
<!-- Generator: Adobe Illustrator 16.0.0, SVG Export Plug-In . SVG Version: 6.00 Build 0)  -->
<!DOCTYPE svg PUBLIC "-//W3C//DTD SVG 1.1//EN" "http://www.w3.org/Graphics/SVG/1.1/DTD/svg11.dtd">
<svg version="1.1" id="Layer_11" xmlns="http://www.w3.org/2000/svg" xmlns:xlink="http://www.w3.org/1999/xlink" x="0px" y="0px"
	 width="100px" height="100px" viewBox="0 0 100 100" enable-background="new 0 0 100 100" xml:space="preserve">
<path d="M15.081,27.243c0-8.1,6.566-14.666,14.666-14.666s14.666,6.566,14.666,14.666s-6.566,14.666-14.666,14.666
	S15.081,35.342,15.081,27.243z M36.8,60.373c-1.298-2.083-2.061-4.533-2.061-7.163c0-3.961,1.713-7.521,4.426-10.009
	c-1.041-0.18-2.105-0.293-3.197-0.293H23.524c-10.354,0-18.777,8.424-18.777,18.777v15.223l0.039,0.237l1.049,0.328
	c8.508,2.657,16.049,3.786,22.493,4.049v-6.947C28.328,68.449,31.759,63.109,36.8,60.373z M70.254,41.909
	c8.1,0,14.666-6.566,14.666-14.666s-6.566-14.666-14.666-14.666s-14.666,6.566-14.666,14.666S62.154,41.909,70.254,41.909z
	 M76.476,42.909H64.032c-2.045,0-4.01,0.34-5.854,0.947c2.32,2.44,3.754,5.73,3.754,9.355c0,2.63-0.763,5.08-2.061,7.163
	c5.041,2.735,8.471,8.076,8.471,14.203v6.92c1.211,0.057,2.398,0.095,3.531,0.095c13.801,0,21.8-3.936,22.295-4.186l0.98-0.498
	l0.104,0.001V61.686C95.253,51.333,86.829,42.909,76.476,42.909z M39.239,53.71c0,5.024,4.072,9.098,9.097,9.098
	s9.097-4.073,9.097-9.098c0-5.024-4.072-9.097-9.097-9.097S39.239,48.687,39.239,53.71z M52.195,63.428h-7.719
	c-6.423,0-11.648,5.226-11.648,11.648v9.443l0.024,0.147l0.65,0.203c6.129,1.915,11.455,2.554,15.838,2.554
	c8.561,0,13.522-2.441,13.829-2.596l0.608-0.309l0.064,0.001v-9.443C63.843,68.654,58.618,63.428,52.195,63.428z"/>
</svg>
