<?xml version="1.0" encoding="iso-8859-1"?>
<!-- Generator: Adobe Illustrator 17.0.0, SVG Export Plug-In . SVG Version: 6.00 Build 0)  -->
<!DOCTYPE svg PUBLIC "-//W3C//DTD SVG 1.1//EN" "http://www.w3.org/Graphics/SVG/1.1/DTD/svg11.dtd">
<svg version="1.1" id="Capa_1" xmlns="http://www.w3.org/2000/svg" xmlns:xlink="http://www.w3.org/1999/xlink" x="0px" y="0px"
	 width="64px" height="64px" viewBox="0 0 64 64" style="enable-background:new 0 0 64 64;" xml:space="preserve">
<path d="M57.062,31.398c0.932-1.025,0.842-2.596-0.201-3.508L33.884,7.785c-1.043-0.912-2.715-0.893-3.736,0.043L7.093,28.962
	c-1.021,0.936-1.071,2.505-0.111,3.503l0.578,0.602c0.959,0.998,2.509,1.117,3.46,0.265l1.723-1.543v22.59
	c0,1.386,1.123,2.508,2.508,2.508h8.987c1.385,0,2.508-1.122,2.508-2.508V38.575h11.463v15.804c-0.02,1.385,0.971,2.507,2.356,2.507
	h9.524c1.385,0,2.508-1.122,2.508-2.508V32.107c0,0,0.476,0.417,1.063,0.933c0.586,0.515,1.817,0.102,2.749-0.924L57.062,31.398z"/>
</svg>
