<?xml version="1.0" encoding="utf-8"?>
<!-- Generator: Adobe Illustrator 16.0.4, SVG Export Plug-In . SVG Version: 6.00 Build 0)  -->
<!DOCTYPE svg PUBLIC "-//W3C//DTD SVG 1.1//EN" "http://www.w3.org/Graphics/SVG/1.1/DTD/svg11.dtd">
<svg version="1.1" id="Capa_1" xmlns="http://www.w3.org/2000/svg" xmlns:xlink="http://www.w3.org/1999/xlink" x="0px" y="0px"
	 width="64px" height="64px" viewBox="0 0 64 64" enable-background="new 0 0 64 64" xml:space="preserve">
<g>
	<path fill="#0E0F0F" d="M34.77,49.582c-0.39,0-0.541-0.173-0.611-0.307c-0.213-2.461-1.346-4.818-3.218-6.732
		c0.647-1.325,0.579-3.169,0.553-3.59c-0.017-0.271-0.152-0.52-0.371-0.68c-0.22-0.159-0.497-0.211-0.761-0.146l-5.58,1.436
		c-0.543-0.174-1.468-0.308-3.036-0.513c-0.657-0.142-1.359-0.214-2.084-0.214c-3.95,0-7.582,2.096-7.756,2.199
		c-2.552,1.594-4.292,3.91-5.025,6.588c-0.251,0.146-0.513,0.252-0.772,0.301c0.09-0.597,0.019-1.229-0.204-1.721
		c-0.718-1.579-2.491-0.162-2.405,1.115c0.038,0.584,0.502,1.1,1.041,1.396c-0.23,0.044-0.5,0.032-0.799-0.042
		c-1.732-0.427-1.789-2.387-1.616-3.824c0.083-0.691-0.886-0.248-0.947,0.254C0.905,47.38,1.696,50.17,4.553,49.73
		c0.518-0.08,0.889-0.366,1.149-0.746c0.333-0.014,0.646-0.084,0.939-0.205c-0.093,0.578-0.157,1.164-0.157,1.768
		c0,3.479,0.297,6.545,3.941,8.898c0.164,0.33,0.311,1.459,0.311,2.459c0,0.474,0.365,0.867,0.837,0.904l3.199,0.246
		c0.024,0.002,0.047,0.004,0.071,0.004c0,0,0.012,0,0.018,0c0.502,0,0.908-0.406,0.908-0.908c0-0.121-0.023-0.237-0.068-0.342
		c-0.043-0.254-0.069-0.526-0.078-0.75c1.282,0.277,2.563,0.305,3.867,0.305c0.254,0,0.421-0.004,0.572-0.016
		c0.077,0.319,0.164,0.728,0.23,1.078c0.081,0.432,0.457,0.739,0.892,0.739h0.006l2.199-0.015c0.491-0.004,0.889-0.396,0.901-0.887
		c0.015-0.654,0.068-1.35,0.128-1.777c0.091-0.01,0.19-0.014,0.288-0.021c0.183-0.015,0.336-0.023,0.467-0.035
		c0.106,0.271,0.233,0.653,0.331,1.012c0.118,0.424,0.521,0.713,0.961,0.662l3.396-0.324c0.264-0.023,0.503-0.164,0.655-0.381
		c0.153-0.219,0.202-0.49,0.138-0.748c-0.15-0.586-0.275-1.237-0.309-1.592c0.548-0.486,0.79-1.004,1.007-1.47
		c0.144-0.306,0.268-0.571,0.441-0.797c0.988-1.085,2.719-1.146,3.139-1.146h0.008c0.252,0.018,0.487-0.08,0.668-0.252
		c0.18-0.172,0.279-0.408,0.279-0.655v-4.265c0-0.267-0.15-0.518-0.354-0.689C35.334,49.615,35.029,49.538,34.77,49.582z
		 M4.507,47.082c-0.192-0.359,0.04-0.721,0.372-0.42c0.229,0.207,0.294,0.597,0.338,0.885c0.015,0.104,0.016,0.192,0.015,0.281
		C4.959,47.695,4.709,47.46,4.507,47.082z M34.074,53.881c-0.996,0.118-2.542,0.508-3.663,1.741
		c-0.345,0.438-0.535,0.845-0.702,1.202c-0.205,0.441-0.343,0.734-0.735,1.015c-0.041,0.031-0.081,0.063-0.116,0.101
		c-0.219,0.222-0.507,0.508-0.195,2.133l-1.626,0.156c-0.445-1.336-0.809-1.545-1.172-1.642c-0.152-0.042-0.314-0.042-0.467,0
		c-0.15,0.024-0.489,0.046-0.82,0.069c-0.738,0.053-0.945,0.072-1.116,0.127c-0.099,0.031-0.192,0.081-0.275,0.144
		c-0.228,0.177-0.559,0.431-0.675,2.415l-0.582,0.004c-0.271-1.289-0.527-1.871-1.334-1.871H20.59l-0.304,0.032
		c-0.272,0.028-0.406,0.041-0.795,0.041c-1.394,0-2.75-0.03-4.025-0.399c-0.039-0.012-0.075-0.02-0.115-0.026
		c-0.046-0.007-0.158-0.017-0.206-0.017c-0.376,0-0.716,0.164-0.957,0.459c-0.32,0.393-0.4,1.006-0.381,1.597l-1.276-0.101
		c-0.088-1.713-0.464-2.768-1.118-3.137C8.767,56.215,8.3,54.18,8.3,50.547c0-3.256,1.664-6.16,4.542-7.957
		c0.033-0.02,3.354-1.938,6.818-1.938c0.597,0,1.17,0.059,1.774,0.186c1.579,0.208,2.282,0.337,2.588,0.405
		c0.195,0.161,0.457,0.245,0.727,0.196c0.02-0.002,0.053-0.01,0.079-0.018l0.012-0.001c0.003-0.002,0.007-0.003,0.007-0.003
		l4.815-1.236c-0.063,0.758-0.232,1.537-0.544,1.854c-0.173,0.175-0.266,0.414-0.258,0.661c0.006,0.248,0.113,0.48,0.297,0.646
		c1.902,1.724,3.039,3.931,3.202,6.214c0.006,0.09,0.024,0.174,0.056,0.254c0.291,0.774,0.89,1.306,1.659,1.502V53.881z"/>
	<circle fill="#0E0F0F" cx="21.169" cy="28.949" r="4.235"/>
	<path fill="#0E0F0F" d="M21.33,44.425c-5.964-2.153-9.181,1.468-9.314,1.621c-0.326,0.379-0.283,0.945,0.09,1.274
		c0.171,0.148,0.385,0.224,0.597,0.224c0.251,0,0.502-0.104,0.683-0.306c0.103-0.116,2.579-2.824,7.329-1.106
		c0.471,0.173,0.991-0.071,1.163-0.545C22.046,45.116,21.802,44.596,21.33,44.425z"/>
	<ellipse fill="#0E0F0F" cx="29.136" cy="47.929" rx="0.908" ry="1.35"/>
	<path fill="#0E0F0F" d="M62.275,33.4l-2.522-16.283c-0.312-2.015-2.198-3.712-4.214-3.399l-13.406,0.014l-15.166,7.404
		c-1.836,0.886-2.607,3.095-1.721,4.932c0.638,1.319,1.956,2.088,3.33,2.088c0.539,0,1.085-0.118,1.603-0.368l10.994-5.307
		c0,0-0.337,21.582-0.588,25.315c-0.25,3.709-0.507,7.545-0.752,10.585c-0.164,2.034,1.351,3.812,3.384,3.979
		c0.102,0.008,0.201,0.013,0.301,0.013c1.904,0,3.209-1.464,3.363-3.396c0.188-2.291,0.878-22.797,0.878-22.797
		c0.177,14.916,0.489,20.604,0.576,22.943c0.073,1.991,1.397,3.557,3.375,3.557c0.046,0,0.092,0,0.14-0.003
		c2.037-0.075,3.629-1.788,3.553-3.827c-0.111-3.065-0.229-6.853-0.346-10.637c-0.115-3.802-0.531-12.577-0.531-12.911V25.089
		l1.209,9.443c0.281,1.823,1.668,3.129,3.457,3.129c0.188,0,0.379-0.015,0.57-0.045C61.775,37.305,62.589,35.417,62.275,33.4z"/>
	<circle fill="#0E0F0F" cx="49.007" cy="6.8" r="5.966"/>
</g>
</svg>
