<?xml version="1.0" encoding="iso-8859-1"?>
<!-- Generator: Adobe Illustrator 17.0.0, SVG Export Plug-In . SVG Version: 6.00 Build 0)  -->
<!DOCTYPE svg PUBLIC "-//W3C//DTD SVG 1.1//EN" "http://www.w3.org/Graphics/SVG/1.1/DTD/svg11.dtd">
<svg version="1.1" id="Capa_1" xmlns="http://www.w3.org/2000/svg" xmlns:xlink="http://www.w3.org/1999/xlink" x="0px" y="0px"
	 width="64px" height="64px" viewBox="0 0 64 64" style="enable-background:new 0 0 64 64;" xml:space="preserve">
<ellipse cx="33.182" cy="8.525" rx="13.233" ry="2.758"/>
<path d="M46.03,56.463V10.219c-3.055,1.275-8.026,1.618-12.461,1.618c-4.832,0-10.3-0.402-13.234-1.976v46.602
	c0,1.105,0.836,2.325,1.893,2.643c2.326,0.696,6.625,1.711,11.94,1.711c5.044,0,8.267-0.82,10.061-1.492
	C45.264,58.937,46.03,57.567,46.03,56.463z M26.161,54.848c-2.227-0.399-3.693-0.938-4.572-1.34V46.06
	c1.01,0.423,2.493,0.913,4.572,1.279V54.848z M26.161,45.899c-2.275-0.426-3.746-1.002-4.572-1.401v-5.431
	c1.01,0.422,2.493,0.914,4.572,1.278V45.899z M26.161,38.899c-2.284-0.424-3.749-0.997-4.572-1.393v-5.431
	c1.01,0.424,2.493,0.913,4.572,1.28V38.899z M26.161,31.907c-2.284-0.424-3.749-0.996-4.572-1.392v-5.431
	c1.01,0.421,2.493,0.913,4.572,1.277V31.907z M26.161,24.924c-2.275-0.424-3.746-1.003-4.572-1.401v-5.431
	c1.01,0.423,2.493,0.913,4.572,1.279V24.924z M26.161,17.924c-2.284-0.424-3.749-0.997-4.572-1.392v-4.294
	c1.162,0.62,2.773,1.032,4.572,1.307V17.924z M30.844,55.335c-1.508-0.062-2.826-0.195-3.971-0.371V47.46
	c1.153,0.174,2.479,0.304,3.971,0.368V55.335z M30.844,46.408c-1.511-0.066-2.832-0.205-3.971-0.389v-5.553
	c1.153,0.174,2.479,0.306,3.971,0.369V46.408z M30.844,39.409c-1.513-0.068-2.832-0.208-3.971-0.393v-5.541
	c1.153,0.174,2.479,0.304,3.971,0.368V39.409z M30.844,32.418c-1.513-0.068-2.832-0.209-3.971-0.392v-5.542
	c1.153,0.173,2.479,0.305,3.971,0.367V32.418z M30.844,25.431c-1.511-0.065-2.832-0.202-3.971-0.385v-5.554
	c1.153,0.174,2.479,0.305,3.971,0.368V25.431z M30.844,18.435c-1.513-0.069-2.832-0.208-3.971-0.393v-4.39
	c1.271,0.164,2.62,0.259,3.971,0.312V18.435z M35.527,55.3c-0.803,0.038-1.64,0.067-2.544,0.073
	c-0.106,0.002-0.21,0.002-0.315,0.002c-0.387,0-0.748-0.01-1.113-0.02v-7.502c0.426,0.01,0.851,0.021,1.302,0.021
	c0.107,0,0.22,0,0.331-0.001c0.825-0.006,1.596-0.031,2.34-0.062V55.3z M35.527,46.387c-0.745,0.032-1.519,0.058-2.352,0.062
	c-0.561,0.006-1.101,0.002-1.621-0.012V40.86c0.426,0.013,0.851,0.022,1.302,0.022c0.107,0,0.22,0,0.331-0.001
	c0.825-0.006,1.596-0.03,2.34-0.062V46.387z M35.527,39.393c-0.745,0.035-1.519,0.06-2.352,0.065
	c-0.104,0.002-0.209,0.002-0.313,0.002c-0.453,0-0.882-0.011-1.308-0.022v-5.568c0.426,0.011,0.851,0.021,1.302,0.021
	c0.107,0,0.22,0,0.331-0.001c0.825-0.005,1.596-0.03,2.34-0.062V39.393z M35.527,32.403c-0.745,0.032-1.519,0.058-2.352,0.063
	c-0.104,0.001-0.209,0.001-0.313,0.001c-0.453,0-0.882-0.01-1.308-0.022v-5.568c0.426,0.012,0.851,0.022,1.302,0.022
	c0.107,0,0.22,0,0.331-0.001c0.825-0.005,1.596-0.03,2.34-0.062V32.403z M35.527,25.409c-0.745,0.035-1.519,0.06-2.352,0.065
	c-0.561,0.006-1.101,0.001-1.621-0.013v-5.576c0.426,0.011,0.851,0.022,1.302,0.022c0.107,0,0.22,0,0.331-0.002
	c0.825-0.006,1.596-0.03,2.34-0.062V25.409z M35.527,18.419c-0.745,0.032-1.519,0.058-2.352,0.064
	c-0.104,0.002-0.209,0.002-0.313,0.002c-0.453,0-0.882-0.01-1.308-0.022v-4.473c0.665,0.019,1.327,0.031,1.975,0.031
	c0.656,0,1.326-0.013,1.998-0.032V18.419z M40.212,54.854c-1.14,0.17-2.456,0.317-3.973,0.411v-7.486
	c1.498-0.084,2.817-0.218,3.973-0.377V54.854z M40.212,45.961c-1.143,0.165-2.466,0.305-3.973,0.392v-5.567
	c1.498-0.083,2.817-0.216,3.973-0.378V45.961z M40.212,38.97c-1.143,0.165-2.466,0.304-3.973,0.391v-5.566
	c1.498-0.084,2.817-0.218,3.973-0.378V38.97z M40.212,31.977c-1.143,0.166-2.466,0.305-3.973,0.392v-5.567
	c1.498-0.083,2.817-0.217,3.973-0.377V31.977z M40.212,24.986c-1.143,0.164-2.466,0.303-3.973,0.391V19.81
	c1.498-0.084,2.817-0.217,3.973-0.377V24.986z M40.212,17.993c-1.143,0.165-2.466,0.305-3.973,0.392v-4.42
	c1.353-0.055,2.698-0.158,3.973-0.324V17.993z M44.774,53.811c-0.812,0.272-2.069,0.625-3.852,0.929v-7.445
	c1.663-0.262,2.921-0.572,3.852-0.85V53.811z M44.774,44.95c-0.846,0.272-2.111,0.61-3.852,0.896v-5.544
	c1.663-0.262,2.921-0.574,3.852-0.853V44.95z M44.774,37.958c-0.846,0.272-2.111,0.61-3.852,0.896v-5.544
	c1.663-0.262,2.921-0.572,3.852-0.85V37.958z M44.774,30.966c-0.846,0.273-2.111,0.61-3.852,0.898v-5.545
	c1.663-0.261,2.921-0.573,3.852-0.851V30.966z M44.774,23.975c-0.846,0.273-2.111,0.61-3.852,0.896v-5.545
	c1.663-0.262,2.921-0.572,3.852-0.85V23.975z M44.774,16.982c-0.846,0.272-2.111,0.61-3.852,0.896v-4.334
	c1.455-0.224,2.784-0.54,3.852-0.984V16.982z"/>
</svg>
