<?xml version="1.0" encoding="utf-8"?>
<!-- Generator: Adobe Illustrator 16.0.4, SVG Export Plug-In . SVG Version: 6.00 Build 0)  -->
<!DOCTYPE svg PUBLIC "-//W3C//DTD SVG 1.1//EN" "http://www.w3.org/Graphics/SVG/1.1/DTD/svg11.dtd">
<svg version="1.1" id="Capa_1" xmlns="http://www.w3.org/2000/svg" xmlns:xlink="http://www.w3.org/1999/xlink" x="0px" y="0px"
	 width="100px" height="100px" viewBox="0 0 100 100" enable-background="new 0 0 100 100" xml:space="preserve">
<g id="Layer_8">
	<path d="M47.392,63.833C47.138,65.041,47,66.291,47,67.573c0,0.425,0.035,0.842,0.064,1.26H11.067c-1.381,0-2.5-1.119-2.5-2.5
		v-38.35c0-1.381,1.119-2.5,2.5-2.5h77.867c1.381,0,2.5,1.119,2.5,2.5v29.855l-5-1.889V37.984c-0.693,0.289-1.453,0.45-2.25,0.45
		c-3.231,0-5.851-2.619-5.851-5.85c0-0.741,0.144-1.448,0.396-2.101H21.123c0.251,0.653,0.395,1.359,0.395,2.101
		c0,3.231-2.619,5.85-5.85,5.85c-0.741,0-1.448-0.144-2.101-0.395v17.855c0.653-0.25,1.359-0.395,2.101-0.395
		c3.231,0,5.85,2.619,5.85,5.85c0,0.89-0.204,1.729-0.559,2.483H47.392z M54.505,52.91h-9.622c0-2.301,1.375-4.274,3.346-5.158
		c-1.264-0.707-2.12-2.057-2.12-3.609c0-2.284,1.851-4.135,4.135-4.135c2.283,0,4.135,1.852,4.135,4.135
		c0,1.454-0.752,2.73-1.888,3.468c1.844,0.681,3.229,2.294,3.595,4.268c1.506-0.873,3.146-1.531,4.885-1.942
		c0.187-0.805,0.286-1.641,0.286-2.502c0-3.679-1.786-6.932-4.53-8.967h5.314v-5.5H37.958v5.5h5.497
		c-2.745,2.035-4.531,5.288-4.531,8.967c0,3.362,1.493,6.37,3.844,8.417h-4.81v5.5h10.165C49.375,57.939,51.615,55.012,54.505,52.91
		z M65.141,79.516c-6.504,0-11.775-5.271-11.775-11.775s5.271-11.775,11.775-11.775c3.389,0,6.435,1.439,8.582,3.73
		c0.996-0.602,2.057-1.104,3.172-1.489c-2.775-3.417-7.008-5.604-11.754-5.604C56.779,52.602,50,59.379,50,67.741
		s6.777,15.14,15.141,15.14c0.945,0,1.868-0.098,2.767-0.264c-0.591-0.999-1.083-2.061-1.459-3.178
		C66.018,79.486,65.582,79.516,65.141,79.516z M67.939,58.951h-3.088l-0.131,0.683c-0.179,0.937-0.729,2.181-3.433,2.181h-0.841
		v3.269h0.841c1.169,0,2.147-0.12,2.952-0.364v11.924h1.535c-0.129-0.834-0.215-1.683-0.215-2.552c0-3.136,0.877-6.063,2.377-8.579
		v-6.561H67.939z M98.218,74.091c0,8.361-6.778,15.14-15.14,15.14c-8.362,0-15.141-6.777-15.141-15.14s6.778-15.14,15.141-15.14
		C91.439,58.951,98.218,65.729,98.218,74.091z M94.854,74.091c0-6.503-5.271-11.774-11.774-11.774s-11.774,5.271-11.774,11.774
		s5.271,11.775,11.774,11.775S94.854,80.594,94.854,74.091z M82.66,65.982c-0.18,0.937-0.73,2.182-3.434,2.182h-0.84v3.27h0.84
		c1.17,0,2.147-0.121,2.953-0.363v11.923h3.698V65.301h-3.087L82.66,65.982z"/>
</g>
</svg>
