<?xml version="1.0" encoding="iso-8859-1"?>
<!-- Generator: Adobe Illustrator 17.0.0, SVG Export Plug-In . SVG Version: 6.00 Build 0)  -->
<!DOCTYPE svg PUBLIC "-//W3C//DTD SVG 1.1//EN" "http://www.w3.org/Graphics/SVG/1.1/DTD/svg11.dtd">
<svg version="1.1" id="Capa_1" xmlns="http://www.w3.org/2000/svg" xmlns:xlink="http://www.w3.org/1999/xlink" x="0px" y="0px"
	 width="64px" height="64px" viewBox="0 0 64 64" style="enable-background:new 0 0 64 64;" xml:space="preserve">
<path d="M45.333,60.2h15.333V47.467l-3-31.767h-9.333l-3,31.767V36.2v-7.167l-14,7.082v-7.082l-14,7.082v-7.082L3.167,36.2v24h36.5
	H45.333z M16.083,53.617c0,1.657-1.343,3-3,3H9.75c-1.657,0-3-1.343-3-3v-3.333c0-1.657,1.343-3,3-3h3.333c1.657,0,3,1.343,3,3
	V53.617z M29.083,53.617c0,1.657-1.343,3-3,3H22.75c-1.657,0-3-1.343-3-3v-3.333c0-1.657,1.343-3,3-3h3.333c1.657,0,3,1.343,3,3
	V53.617z M35.75,56.617c-1.657,0-3-1.343-3-3v-3.333c0-1.657,1.343-3,3-3h3.333c1.657,0,3,1.343,3,3v3.333c0,1.657-1.343,3-3,3
	H35.75z"/>
<path d="M31.167,9.783c8.458,1,16.833-1.375,17.208,3.75h8.5c0,0-1.417-13.5-17.208-8.625C23.875,9.783,25.625,3.135,25.625,3.135
	S22.708,8.783,31.167,9.783z"/>
</svg>
