<?xml version="1.0" encoding="iso-8859-1"?>
<!-- Generator: Adobe Illustrator 16.0.4, SVG Export Plug-In . SVG Version: 6.00 Build 0)  -->
<!DOCTYPE svg PUBLIC "-//W3C//DTD SVG 1.1//EN" "http://www.w3.org/Graphics/SVG/1.1/DTD/svg11.dtd">
<svg version="1.1" id="Capa_1" xmlns="http://www.w3.org/2000/svg" xmlns:xlink="http://www.w3.org/1999/xlink" x="0px" y="0px"
	 width="13.776px" height="15px" viewBox="0 0 13.776 15" style="enable-background:new 0 0 13.776 15;" xml:space="preserve">
<path style="fill:#010002;" d="M13.053,9.256c-0.641-1.308-1.633-2.104-4.065-2.104H8.733H8.486c-0.885,0-1.384,0.066-2.136,0.304
	c-1.303,0.41-6.129,6.211-6.129,6.211c-0.295,0.295-0.295,0.772,0,1.067c0.147,0.147,0.34,0.221,0.532,0.221
	c0.193,0,0.387-0.073,0.534-0.221l4.593-4.236C5.889,10.607,5.973,15,5.973,15h5.524l0.119-3.837L11.988,15h1.788
	C13.548,12.607,13.241,9.64,13.053,9.256z M7.551,14.965H6.295l4.17-7.459c0.415,0.084,0.759,0.21,1.052,0.367L7.551,14.965z
	 M11.344,3.932c0,1.442-1.168,2.609-2.608,2.609H8.733c-0.002,0-0.002,0-0.004,0c-1.438,0-2.607-1.167-2.607-2.609
	c0-0.279,0.056-0.545,0.136-0.796h2.476h2.475C11.29,3.387,11.344,3.652,11.344,3.932z M11.424,0.693l-0.216,2.039H8.733H6.258
	L6.042,0.693L8.733,0L11.424,0.693z"/>
<g>
</g>
<g>
</g>
<g>
</g>
<g>
</g>
<g>
</g>
<g>
</g>
<g>
</g>
<g>
</g>
<g>
</g>
<g>
</g>
<g>
</g>
<g>
</g>
<g>
</g>
<g>
</g>
<g>
</g>
</svg>
