<?xml version="1.0" encoding="iso-8859-1"?>
<!-- Generator: Adobe Illustrator 17.0.0, SVG Export Plug-In . SVG Version: 6.00 Build 0)  -->
<!DOCTYPE svg PUBLIC "-//W3C//DTD SVG 1.1//EN" "http://www.w3.org/Graphics/SVG/1.1/DTD/svg11.dtd">
<svg version="1.1" id="Capa_1" xmlns="http://www.w3.org/2000/svg" xmlns:xlink="http://www.w3.org/1999/xlink" x="0px" y="0px"
	 width="64px" height="64px" viewBox="0 0 64 64" style="enable-background:new 0 0 64 64;" xml:space="preserve">
<g>
	<path d="M54.926,53.417l-0.279,0.069c-2.004-2.741-1.117-5.347-1.079-5.454c0.129-0.344,0.059-0.73-0.183-1.007
		c-0.241-0.276-0.614-0.398-0.972-0.319l-1.073,0.24l-0.089-0.012l-15.907,3.969c-0.064,0.017-0.128,0.021-0.192,0.023
		c-0.011,0.001-0.019,0.007-0.031,0.007c-0.006-0.002-0.013,0-0.019,0c0,0,0,0-0.001,0c-0.001,0-0.001-0.001-0.002-0.001
		c-0.066,0-0.134-0.007-0.201-0.02l-21.229-4.424L9.523,47.28l-1.006-0.193c-0.38-0.076-0.766,0.078-0.993,0.389
		c-2.751,3.732,0.948,8.371,1.108,8.566c0.146,0.179,0.347,0.302,0.572,0.349l22.694,4.729c0.067,0.014,0.135,0.021,0.201,0.021
		c0.001,0,0.001,0.001,0.002,0.001c0.001,0,0.001,0,0.001,0c0.007,0,0.014-0.002,0.019,0c0.012,0,0.021-0.006,0.031-0.007
		c0.064-0.003,0.128-0.007,0.192-0.023l23.066-5.755c0.536-0.133,0.861-0.676,0.728-1.212C56.004,53.608,55.46,53.281,54.926,53.417
		z M9.982,54.51c-0.575-0.813-2.119-3.3-1.16-5.328l2.853,0.548c-0.107,1.199-0.073,3.269,0.962,5.334L9.982,54.51z M15.413,55.642
		c-0.005-0.006-0.006-0.014-0.011-0.02c-1.681-1.902-1.824-4.232-1.747-5.512l9.526,1.828c-0.137,1.047-0.241,3.25,0.793,5.487
		L15.413,55.642z M26.666,57.987c-1.67-2.087-1.632-4.585-1.513-5.67l4.66,0.895c-0.472,1.428-0.683,3.447,0.181,5.469
		L26.666,57.987z M32.486,59.015c-1.733-2.357-0.97-4.775-0.573-5.677l19.453-4.348c-0.103,1.259,0.055,3.093,1.221,5.01
		L32.486,59.015z"/>
	<path d="M57.926,42.309l-0.279,0.069c-2.004-2.741-1.117-5.347-1.079-5.454c0.129-0.344,0.059-0.73-0.183-1.007
		c-0.241-0.276-0.614-0.398-0.972-0.319l-1.073,0.24l-15.423-2.029c-0.482,0.633-1.036,1.285-1.676,1.956
		c-0.577,0.604-1.494,0.952-2.515,0.952c-0.341,0-0.671-0.039-0.982-0.116c-1.136-0.285-2.353-0.28-3.489,0.001
		c-0.31,0.077-0.64,0.115-0.979,0.115c-1.022,0-1.939-0.347-2.517-0.953c-0.651-0.683-1.211-1.345-1.699-1.987l-12.538,2.396
		l-1.006-0.193c-0.38-0.076-0.766,0.078-0.993,0.389c-2.751,3.732,0.948,8.371,1.108,8.566c0.146,0.179,0.347,0.302,0.572,0.349
		l22.694,4.729c0.067,0.014,0.135,0.021,0.201,0.021c0.001,0,0.001,0.001,0.002,0.001c0.001,0,0.001,0,0.001,0
		c0.007,0,0.014-0.002,0.019,0c0.012,0,0.021-0.006,0.031-0.007c0.064-0.003,0.128-0.007,0.192-0.023l23.066-5.755
		c0.536-0.133,0.861-0.676,0.728-1.212C59.004,42.5,58.46,42.173,57.926,42.309z M12.982,43.401c-0.575-0.813-2.119-3.3-1.16-5.328
		l2.853,0.548c-0.107,1.199-0.073,3.269,0.962,5.334L12.982,43.401z M18.413,44.533c-0.005-0.006-0.006-0.014-0.011-0.02
		c-1.681-1.902-1.824-4.232-1.747-5.512l9.526,1.828c-0.137,1.047-0.241,3.25,0.793,5.487L18.413,44.533z M29.666,46.879
		c-1.67-2.087-1.632-4.585-1.513-5.67l4.66,0.894c-0.472,1.428-0.683,3.447,0.181,5.469L29.666,46.879z M35.486,47.906
		c-1.733-2.358-0.97-4.775-0.573-5.677l19.453-4.348c-0.103,1.259,0.055,3.093,1.221,5.01L35.486,47.906z"/>
	<path d="M28.236,15.376c0.028,0.007,2.772,0.761,2.764,4.142c-0.001,0.553,0.445,1.002,0.998,1.003c0.001,0,0.001,0,0.002,0
		c0.551,0,0.999-0.446,1-0.997c0.01-3.932-2.782-5.698-4.26-6.083c-0.538-0.137-1.081,0.182-1.22,0.716S27.702,15.236,28.236,15.376
		z"/>
	<path d="M27.483,35.002c0.586,0.614,1.708,0.761,2.531,0.557c0.543-0.135,1.221-0.243,1.996-0.243c0.766,0,1.436,0.108,1.975,0.242
		c0.824,0.205,1.946,0.059,2.532-0.556c8.368-8.774,1.906-14.379,0.019-14.543c-1.064-0.093-2.304,0.417-3.217,0.903
		c-0.749,0.398-1.872,0.405-2.621,0.007c-0.918-0.488-2.165-1.003-3.234-0.91C25.577,20.623,19.116,26.228,27.483,35.002z"/>
</g>
</svg>
