<?xml version="1.0" encoding="utf-8"?>
<!-- Generator: Adobe Illustrator 16.0.4, SVG Export Plug-In . SVG Version: 6.00 Build 0)  -->
<!DOCTYPE svg PUBLIC "-//W3C//DTD SVG 1.1//EN" "http://www.w3.org/Graphics/SVG/1.1/DTD/svg11.dtd">
<svg version="1.1" id="Capa_1" xmlns="http://www.w3.org/2000/svg" xmlns:xlink="http://www.w3.org/1999/xlink" x="0px" y="0px"
	 width="52px" height="52px" viewBox="0 0 52 52" enable-background="new 0 0 52 52" xml:space="preserve">
<g>
	<path d="M48.544,24.945c-2.149,0.433-3.896,1.64-5.022,2.624c-0.832,0.728-1.914,0.674-2.219-0.389
		c-1.227-4.292,0.828-10.531,0.828-10.531c2.277-5.756-5.954-4.343-5.954-4.343c-15.21,2.784-19.673,10.677-20.945,14.36
		c-0.361,1.044-1.169,2.551-1.702,3.518c-0.041,0.075-0.079,0.148-0.114,0.221c-0.483,0.992,0.337,2.609,0.936,3.537
		c0.742,1.15,1.024,1.936,1.024,1.936c3.985,12.461,22.011,13.725,22.011,13.725c3.123,0.399,4.318-0.635,4.75-1.705
		c0.411-1.025-0.303-2.746-0.668-3.789c-1.205-3.453-0.603-6.949-0.011-9.023c0.304-1.062,1.257-1.213,2.056-0.449
		c2.326,2.229,4.197,3.121,5.483,3.459c1.067,0.281,1.659-0.716,1.382-1.785c-1.016-3.928-0.689-7.485-0.309-9.576
		C50.268,25.647,49.627,24.727,48.544,24.945z M20.089,35.562c-1.974,0-3.574-1.602-3.574-3.574s1.6-3.573,3.574-3.573
		c1.974,0,3.574,1.601,3.574,3.573C23.663,33.962,22.062,35.562,20.089,35.562z"/>
	<circle cx="19.943" cy="30.746" r="1.373"/>
	<path d="M2.887,5.815c0.468,0.691,1.165,1.822,1.165,2.927c0,1.621,0,4.555,0,9.868c0,3.215,2.596,5.812,5.934,5.812
		c3.215,0,5.935-2.72,5.935-5.935c0,0,0,0,0-4.307c0-1.104-0.46-1.231-1.057-0.301c-0.715,1.114-1.679,2.548-2.521,3.568
		c-0.704,0.852-0.91,1.425-0.192,1.596c0.717,0.171,1.421,1.273,0.906,2.251c-0.509,0.966-1.521,1.396-3.07,1.396
		c-2.349,0-4.204-1.854-4.204-4.081c0,0,0,0,0-9.87c0-1.104,0.721-2.22,1.242-2.902c0.306-0.4,0.49-0.893,0.49-1.445
		c0-1.484-1.113-2.597-2.474-2.597c-1.483,0-2.596,1.113-2.596,2.597C2.443,4.894,2.602,5.395,2.887,5.815z"/>
</g>
</svg>
